<svg width="157" height="34" viewBox="0 0 157 34" fill="none" xmlns="http://www.w3.org/2000/svg">
<g clipPath="url(#clip0_4303_24304)">
<path d="M44.9785 2.77682C44.5023 2.54346 44.2972 2.98818 44.0187 3.2141C43.9234 3.28698 43.8428 3.3817 43.7622 3.46914C43.0661 4.2125 42.2528 4.70098 41.1904 4.64258C39.637 4.55506 38.3108 5.04354 37.1384 6.23162C36.8892 4.76658 36.0613 3.89178 34.801 3.33066C34.1416 3.03906 33.4748 2.74746 33.0132 2.1133C32.6908 1.66154 32.6028 1.15858 32.4416 0.662902C32.339 0.364101 32.2364 0.0578615 31.892 0.00682146C31.5184 -0.0514185 31.3718 0.261862 31.2252 0.524422C30.6391 1.59594 30.412 2.77674 30.4339 3.9721C30.4852 6.66178 31.6209 8.80458 33.8776 10.328C34.1341 10.503 34.2 10.6778 34.1195 10.9331C33.9656 11.4579 33.7824 11.968 33.6212 12.4928C33.5186 12.8282 33.3647 12.9011 33.0057 12.7551C31.7674 12.2378 30.6976 11.4723 29.7524 10.5467C28.1477 8.99418 26.6969 7.2813 24.8872 5.9401C24.4622 5.62666 24.0372 5.33522 23.5975 5.0581C21.751 3.26514 23.8393 1.79266 24.3229 1.61786C24.8284 1.43562 24.4988 0.808661 22.8648 0.816101C21.2308 0.823301 19.736 1.37002 17.831 2.0989C17.5526 2.20826 17.2594 2.28834 16.959 2.35394C15.2298 2.02602 13.4346 1.95298 11.5588 2.1645C8.02708 2.55802 5.2062 4.22722 3.1326 7.07722C0.641404 10.503 0.0552444 14.3951 0.773324 18.4551C1.52804 22.7336 3.71148 26.276 7.0674 29.0459C10.5479 31.9176 14.5559 33.3244 19.128 33.0547C21.9051 32.8944 24.9972 32.5227 28.4849 29.5707C29.3641 30.0081 30.2874 30.1829 31.8188 30.3141C32.9985 30.4235 34.1343 30.2559 35.0135 30.0737C36.391 29.7821 36.2958 28.5065 35.7976 28.2733C31.7603 26.3928 32.6468 27.1581 31.8408 26.5385C33.8924 24.1114 36.9846 21.5893 38.1936 13.4184C38.2888 12.7698 38.2082 12.3615 38.1936 11.8367C38.1862 11.5161 38.2595 11.3923 38.6259 11.3557C39.637 11.2391 40.6188 10.9622 41.5201 10.4665C44.136 9.03794 45.191 6.6909 45.4401 3.87738C45.4768 3.4473 45.4328 3.00258 44.9785 2.77682ZM22.1835 28.0983C18.2708 25.0225 16.3731 24.0092 15.589 24.053C14.8563 24.0967 14.9882 24.935 15.1493 25.4817C15.3179 26.021 15.5377 26.3928 15.8454 26.8665C16.0579 27.1799 16.2045 27.6463 15.633 27.9963C14.3727 28.7763 12.1818 27.7339 12.0792 27.6829C9.5294 26.1813 7.39716 24.1987 5.895 21.4874C4.4442 18.8778 3.60164 16.079 3.46236 13.0905C3.42572 12.369 3.6382 12.1137 4.35628 11.9827C5.30148 11.8077 6.27604 11.7711 7.22124 11.9096C11.2147 12.4928 14.6144 14.2786 17.4647 17.1067C19.0913 18.7175 20.3223 20.6419 21.59 22.5223C22.9381 24.5194 24.3889 26.4219 26.2354 27.9817C26.8875 28.5283 27.4077 28.9438 27.906 29.25C26.404 29.4176 23.898 29.4542 22.1835 28.0983ZM24.0592 16.0352C24.0592 15.7145 24.3157 15.4595 24.6382 15.4595C24.7115 15.4595 24.7774 15.4739 24.836 15.4957C24.9167 15.525 24.99 15.5687 25.0485 15.6342C25.1512 15.7363 25.2097 15.882 25.2097 16.0351C25.2097 16.3559 24.9533 16.6109 24.631 16.6109C24.3087 16.6109 24.0592 16.3559 24.0592 16.0352ZM29.8844 19.0237C29.5108 19.1768 29.1371 19.3079 28.778 19.3225C28.2212 19.3516 27.613 19.1256 27.2833 18.8487C26.7704 18.4186 26.404 18.1782 26.2502 17.4274C26.1842 17.1067 26.2208 16.611 26.2796 16.3268C26.4114 15.7145 26.2648 15.321 25.8326 14.9637C25.4808 14.6721 25.0339 14.592 24.5429 14.592C24.3597 14.592 24.1913 14.5118 24.0667 14.4462C23.8615 14.3442 23.6931 14.0891 23.8542 13.7756C23.9055 13.6737 24.1547 13.4258 24.2133 13.3821C24.8801 13.003 25.6495 13.127 26.3602 13.4112C27.0197 13.6809 27.518 14.1766 28.236 14.8763C28.9687 15.7217 29.1005 15.9551 29.5182 16.5891C29.848 17.0848 30.1484 17.595 30.3536 18.1782C30.4781 18.5427 30.3168 18.8415 29.8844 19.0237Z" fill="#0F172A" fillOpacity="0.8"/>
<path d="M96.0568 11.8619C95.0203 11.8619 93.9752 12.0894 93.2968 12.7299C93.2379 12.7847 93.1831 12.8436 93.1283 12.9027H92.6311V11.8619H89.9047V28.2451H92.6311V18.0646C92.6311 17.0154 92.8586 15.9619 93.4907 15.2751C94.1227 14.584 95.0919 14.3396 96.0568 14.3396C97.0175 14.3396 97.991 14.584 98.623 15.2751C99.2551 15.9619 99.4826 17.0154 99.4826 18.0646C99.4826 19.1096 99.2551 20.1631 98.623 20.8499C97.9909 21.5409 97.0175 21.7853 96.0568 21.7853H94.5062V24.263H96.0568C97.6623 24.263 99.2762 23.8543 100.33 22.7081C101.383 21.5619 101.758 19.8091 101.758 18.0645C101.758 16.3199 101.383 14.5628 100.33 13.4167C99.2762 12.2706 97.6623 11.8619 96.0568 11.8619ZM57.9727 18.4943C57.9727 19.5435 57.7452 20.597 57.1131 21.2839C56.4811 21.9707 55.5119 22.2193 54.547 22.2193C53.582 22.2193 52.6128 21.9707 51.9808 21.2839C51.3487 20.597 51.1212 19.5435 51.1212 18.4943C51.1212 17.4493 51.3487 16.3917 51.9808 15.7048C52.6129 15.0179 53.582 14.7735 54.547 14.7735H56.0976V12.2959H54.547C52.9415 12.2959 51.3276 12.7046 50.2742 13.8507C49.2207 14.9969 48.8457 16.7498 48.8457 18.4943C48.8457 20.2389 49.2207 21.996 50.2742 23.1421C51.3276 24.2883 52.9415 24.697 54.547 24.697C55.5835 24.697 56.6243 24.4652 57.307 23.829C57.3659 23.7742 57.4207 23.7152 57.4713 23.6562H57.9727V24.697H60.6991V8.30969H57.9727V18.4943ZM68.4566 11.8619C66.7879 11.8619 65.1108 12.2875 64.0152 13.4715C62.9239 14.6556 62.5319 16.4718 62.5319 18.2795C62.5319 20.083 62.9239 21.9033 64.0152 23.0874C65.1108 24.2715 66.7879 24.6971 68.4566 24.6971C70.1253 24.6971 71.8023 24.2715 72.8979 23.0874C73.4583 22.4764 73.8376 21.7011 74.0736 20.8415H71.3768C71.301 20.9552 71.2167 21.0648 71.124 21.1659C70.4667 21.8781 69.4595 22.1309 68.4567 22.1309C67.4581 22.1309 66.451 21.8781 65.7936 21.1659C65.1363 20.4538 64.9003 19.3624 64.9003 18.2795C64.9003 17.1967 65.1363 16.1052 65.7936 15.3931C66.451 14.681 67.4581 14.4282 68.4567 14.4282C69.4596 14.4282 70.4667 14.681 71.124 15.3931C71.5791 15.8862 71.8319 16.5562 71.9457 17.2851H67.1251V19.274H74.3855V18.2795C74.3855 16.4719 73.9935 14.6557 72.898 13.4716C71.8067 12.2875 70.1253 11.8619 68.4566 11.8619ZM82.1429 11.8619C80.4784 11.8619 78.7971 12.2875 77.7058 13.4715C76.6102 14.6556 76.2183 16.4718 76.2183 18.2795C76.2183 20.083 76.6103 21.9033 77.7058 23.0874C78.7971 24.2715 80.4784 24.6971 82.1429 24.6971C83.8115 24.6971 85.4887 24.2715 86.5843 23.0874C87.1489 22.4764 87.5239 21.7011 87.7599 20.8415H85.0631C84.9873 20.9552 84.903 21.0648 84.8103 21.1659C84.153 21.8781 83.1459 22.1309 82.1472 22.1309C81.1443 22.1309 80.1372 21.8781 79.4799 21.1659C78.8225 20.4538 78.5866 19.3624 78.5866 18.2795C78.5866 17.1967 78.8226 16.1052 79.4799 15.3931C80.1372 14.681 81.1443 14.4282 82.1472 14.4282C83.1459 14.4282 84.153 14.681 84.8103 15.3931C85.2655 15.8862 85.5183 16.5562 85.632 17.2851H80.8115V19.274H88.0718V18.2795C88.0718 16.4719 87.6799 14.6557 86.5843 13.4716C85.493 12.2875 83.8116 11.8619 82.1429 11.8619ZM113.957 18.0687C112.866 17.3692 111.184 17.1207 109.52 17.1207H109.579C108.867 17.1207 108.15 17.0238 107.683 16.7499C107.215 16.4802 107.051 16.063 107.051 15.6501C107.051 15.2372 107.215 14.82 107.683 14.5503C108.15 14.2764 108.867 14.1795 109.579 14.1795C110.291 14.1795 111.007 14.2807 111.471 14.5503C111.939 14.82 112.107 15.2372 112.107 15.6501H114.884C114.884 14.584 114.526 13.5137 113.536 12.8143C112.545 12.1147 111.028 11.8619 109.52 11.8619C108.011 11.8619 106.494 12.1147 105.504 12.8143C104.514 13.5138 104.16 14.584 104.16 15.6501C104.16 16.7162 104.514 17.7907 105.504 18.4859C106.494 19.1855 108.011 19.4383 109.52 19.4383C110.304 19.4383 111.163 19.5351 111.677 19.8048C112.196 20.0787 112.381 20.4959 112.381 20.9088C112.381 21.3218 112.196 21.7389 111.677 22.0086C111.163 22.2783 110.371 22.3751 109.583 22.3751C108.799 22.3751 108.007 22.2783 107.489 22.0086C106.975 21.7347 106.789 21.3217 106.789 20.9088H103.591C103.591 21.9707 103.983 23.0452 105.079 23.7447C106.174 24.4442 107.851 24.6927 109.52 24.6927C111.184 24.6927 112.866 24.4441 113.957 23.7447C115.053 23.0451 115.444 21.9707 115.444 20.9088C115.444 19.8427 115.053 18.7683 113.957 18.0687ZM123.206 11.8619C121.538 11.8619 119.86 12.2875 118.765 13.4715C117.673 14.6556 117.277 16.4718 117.277 18.2795C117.277 20.083 117.673 21.9033 118.765 23.0874C119.86 24.2715 121.537 24.6971 123.206 24.6971C124.875 24.6971 126.552 24.2715 127.647 23.0874C128.208 22.4764 128.587 21.7011 128.819 20.8415H126.126C126.05 20.9552 125.966 21.0648 125.873 21.1659C125.216 21.8781 124.209 22.1309 123.206 22.1309C122.207 22.1309 121.196 21.8781 120.543 21.1659C119.886 20.4538 119.65 19.3624 119.65 18.2795C119.65 17.1967 119.886 16.1052 120.543 15.3931C121.196 14.681 122.207 14.4282 123.206 14.4282C124.209 14.4282 125.216 14.681 125.873 15.3931C126.329 15.8862 126.581 16.5562 126.695 17.2851H121.87V19.274H129.135V18.2795C129.135 16.4719 128.743 14.6557 127.647 13.4716C126.552 12.2875 124.875 11.8619 123.206 11.8619ZM136.893 11.8619C135.224 11.8619 133.547 12.2875 132.451 13.4715C131.36 14.6556 130.964 16.4718 130.964 18.2795C130.964 20.083 131.36 21.9033 132.451 23.0874C133.547 24.2715 135.224 24.6971 136.893 24.6971C138.561 24.6971 140.238 24.2715 141.334 23.0874C141.894 22.4764 142.274 21.7011 142.51 20.8415H139.813C139.737 20.9552 139.653 21.0648 139.56 21.1659C138.903 21.8781 137.895 22.1309 136.893 22.1309C135.894 22.1309 134.883 21.8781 134.229 21.1659C133.572 20.4538 133.336 19.3624 133.336 18.2795C133.336 17.1967 133.572 16.1052 134.229 15.3931C134.883 14.681 135.894 14.4282 136.893 14.4282C137.895 14.4282 138.903 14.681 139.56 15.3931C140.015 15.8862 140.268 16.5562 140.382 17.2851H135.561V19.274H142.821V18.2795C142.821 16.4719 142.429 14.6557 141.334 13.4716C140.238 12.2875 138.561 11.8619 136.893 11.8619ZM144.65 7.73657H147.376V24.6971H144.65V7.73657ZM153.128 12.4307L148.653 17.896L153.128 24.6971H156.508L152.033 17.896L156.508 12.4307H153.128Z" fill="white"/>
</g>
<defs>
<clipPath id="clip0_4303_24304">
<rect width="156.018" height="33.0876" fill="white" transform="translate(0.488281)"/>
</clipPath>
</defs>
</svg>
