<svg width="190" height="32" viewBox="0 0 190 32" fill="none" xmlns="http://www.w3.org/2000/svg">
<g clipPath="url(#clip0_4303_24342)">
<path d="M48.8061 8.65505C48.3964 8.65352 47.9906 8.73319 47.6119 8.88945C47.2333 9.04572 46.8893 9.27547 46.6 9.56545L44.2273 11.9319C43.9105 12.2484 43.6658 12.6298 43.5102 13.0498C43.3545 13.4698 43.2916 13.9185 43.3256 14.3651L43.3405 14.5153C43.4213 15.2047 43.734 15.8461 44.2273 16.3345C44.5693 16.6757 44.9459 16.8919 45.4035 17.0421C45.427 17.1796 45.4404 17.3188 45.4404 17.4587C45.4404 18.0853 45.1967 18.6742 44.7533 19.1152L44.6071 19.2614C43.8146 18.991 43.1542 18.5955 42.5575 18.0004C41.7682 17.217 41.2393 16.2096 41.0425 15.1151L41.0158 14.9634L40.8955 15.0609C40.8148 15.1261 40.7376 15.1957 40.6643 15.2692L38.2916 17.6356C37.8556 18.071 37.5587 18.6261 37.4386 19.2305C37.3185 19.8349 37.3805 20.4613 37.6169 21.0304C37.8533 21.5995 38.2534 22.0855 38.7664 22.4269C39.2794 22.7682 39.8823 22.9496 40.4985 22.9479C40.908 22.9487 41.3136 22.8687 41.6922 22.7125C42.0708 22.5563 42.4148 22.3269 42.7045 22.0375L45.078 19.671C45.3671 19.3821 45.5965 19.039 45.753 18.6613C45.9094 18.2837 45.99 17.8789 45.99 17.4701C45.99 17.0613 45.9094 16.6566 45.753 16.2789C45.5965 15.9013 45.3671 15.5582 45.078 15.2692C44.7533 14.9458 44.3607 14.6987 43.9286 14.5459C43.8605 14.141 43.891 13.7255 44.0174 13.3348C44.1439 12.9441 44.3626 12.5897 44.655 12.3014C45.444 12.5684 46.1608 13.0139 46.7494 13.6033C47.5376 14.3873 48.0662 15.3945 48.2636 16.4886L48.2911 16.6403L48.4114 16.5428C48.4932 16.4776 48.5702 16.4068 48.6441 16.3329L51.0168 13.9665C51.453 13.5311 51.75 12.976 51.8702 12.3716C51.9903 11.7671 51.9282 11.1406 51.6917 10.5715C51.4552 10.0024 51.0549 9.51643 50.5417 9.17522C50.0285 8.83401 49.4255 8.65296 48.8092 8.65505H48.8061Z" fill="white"/>
<path d="M47.5353 0.000786184H16.4889C7.64124 0.000786184 0.445312 7.17864 0.445312 16.0004C0.445312 24.8229 7.64203 32 16.4882 32H47.5345C56.3814 32 63.5782 24.8222 63.5782 16.0012C63.5782 7.17706 56.3814 0 47.5353 0V0.000786184ZM32.222 25.0855C31.7102 25.1909 31.134 25.2097 30.7424 24.8025C30.5986 25.1327 30.2613 24.9589 30.0011 24.9157C29.9775 24.9825 29.9563 25.0415 29.9342 25.1091C29.0694 25.1665 28.4208 24.2868 28.0089 23.6232C27.1913 23.1814 26.262 22.9125 25.4263 22.4502C25.3775 23.2113 25.5442 24.1563 24.8178 24.6468C24.7808 26.1107 27.0379 24.8198 27.2455 25.911C27.0851 25.9283 26.9074 25.8851 26.7785 26.0085C26.1897 26.5793 25.5143 25.5761 24.8358 25.9904C23.9239 26.448 23.8327 26.823 22.7053 26.9173C22.6424 26.823 22.6683 26.7601 22.721 26.7027C23.0386 26.3348 23.0614 25.9008 23.6031 25.7436C23.0449 25.6563 22.5787 25.9637 22.1086 26.2074C21.4969 26.4566 21.5016 25.6437 20.5614 26.2499C20.4576 26.165 20.5071 26.0879 20.5669 26.0227C20.8059 25.7318 21.1203 25.6885 21.4749 25.7042C19.7304 24.7349 18.9096 26.8898 18.1038 25.8182C17.8616 25.8819 17.7704 26.0997 17.6179 26.253C17.4866 26.1091 17.5865 25.9346 17.592 25.7656C17.4347 25.6917 17.2358 25.6563 17.2822 25.4047C16.9748 25.3009 16.7594 25.4833 16.5298 25.6563C16.3231 25.4967 16.6698 25.2632 16.7342 25.0965C16.9182 24.7766 17.3388 25.0305 17.5519 24.8001C18.1588 24.4566 19.0039 25.0148 19.6974 24.9204C20.232 24.9873 20.8924 24.4409 20.6243 23.8945C20.0535 23.1665 20.1541 22.2144 20.1416 21.3441C20.0708 20.837 18.8499 20.1907 18.4969 19.6436C18.0605 19.1506 17.7209 18.5799 17.3805 18.0177C16.1532 15.6482 16.5393 12.6041 14.9928 10.4036C14.2931 10.7888 13.3827 10.6072 12.7789 10.0899C12.4535 10.3863 12.4393 10.7739 12.4134 11.1842C11.6319 10.4059 11.7294 8.9334 12.3544 8.06624C12.6083 7.73148 12.9115 7.43723 13.2538 7.19357C13.3308 7.13854 13.3568 7.08351 13.3552 6.99703C13.9732 4.22652 18.1855 4.76034 19.5173 6.72344C20.4835 7.9318 20.7752 9.53011 21.8712 10.652C23.3452 12.2613 25.0253 13.6788 26.3854 15.3927C27.6724 16.9587 28.5914 18.7953 29.3934 20.6467C29.7204 21.2615 29.7236 22.0147 30.2086 22.5399C30.4476 22.8567 31.6159 23.7191 31.362 24.0242C31.5082 24.341 32.5986 24.7781 32.2205 25.0855H32.222ZM52.6832 15.6325L50.3105 17.9989C49.6792 18.6293 48.9032 19.0957 48.0503 19.3574L48.0062 19.37L47.9905 19.4116C47.7176 20.1344 47.2926 20.7902 46.7444 21.3346L44.3709 23.7011C43.8622 24.2105 43.2577 24.6141 42.5922 24.8887C41.9267 25.1633 41.2134 25.3034 40.4935 25.3009C39.7735 25.3034 39.0603 25.1633 38.3948 24.8887C37.7293 24.6141 37.1247 24.2105 36.616 23.7011C36.1076 23.1935 35.7042 22.5907 35.4289 21.9272C35.1537 21.2636 35.012 20.5522 35.012 19.8338C35.012 19.1154 35.1537 18.4041 35.4289 17.7405C35.7042 17.0769 36.1076 16.4741 36.616 15.9666L38.9887 13.6002C39.6183 12.9703 40.3936 12.5055 41.2458 12.2472L41.2891 12.2338L41.3048 12.1921C41.5796 11.4675 42.0057 10.8097 42.5548 10.2628L44.9283 7.89642C45.437 7.38699 46.0416 6.98333 46.7071 6.70874C47.3726 6.43414 48.0859 6.29405 48.8058 6.29654C50.272 6.29654 51.6486 6.86495 52.6832 7.89642C53.1936 8.40268 53.5982 9.00535 53.8735 9.66939C54.1489 10.3334 54.2894 11.0456 54.287 11.7644C54.287 13.2267 53.7178 14.6002 52.6832 15.6309V15.6325Z" fill="white"/>
<path d="M22.57 22.2215C22.3617 23.0312 22.2948 24.4086 21.2382 24.4479C21.1517 24.9157 21.5629 25.0918 21.9379 24.9409C22.309 24.7718 22.4851 25.0753 22.6101 25.378C23.1832 25.4613 24.0299 25.1877 24.0622 24.5108C23.2068 24.0195 22.9427 23.0855 22.5716 22.2199L22.57 22.2215ZM78.4417 8.387H75.6232V25.4833H87.7115V22.76H78.4417V8.387ZM101.879 25.4833H104.698V25.4535H104.735L104.74 25.3277C104.741 25.2907 104.751 24.9487 104.699 24.422V18.0586C104.699 15.6647 106.445 14.5758 108.067 14.5758C109.811 14.5758 110.66 15.5153 110.66 17.4509V25.4833H113.479V17.0751C113.479 13.8816 111.45 11.8973 108.185 11.8973C106.797 11.8973 105.559 12.292 104.586 13.0404L104.56 12.1316H101.883V25.4833H101.879ZM124.949 13.1127C123.97 12.3171 122.71 11.8973 121.289 11.8973C117.489 11.8973 115.128 14.5184 115.128 18.7371C115.128 22.9558 117.489 25.6005 121.289 25.6005C122.63 25.6005 123.826 25.2349 124.769 24.5407C124.688 26.6099 123.392 27.8395 121.267 27.8395C119.48 27.8395 118.469 27.2703 118.261 26.1492L118.235 26.0093L115.497 26.845L115.521 26.9574C115.983 29.1863 118.069 30.5173 121.103 30.5173C123.161 30.5173 124.775 29.9567 125.902 28.8506C127.039 27.7357 127.614 26.1288 127.614 24.0761V12.1316H125.007L124.951 13.1127H124.949ZM124.773 18.8542C124.773 21.4015 123.532 22.9235 121.453 22.9235C119.224 22.9235 117.947 21.3983 117.947 18.7379C117.947 16.0782 119.225 14.575 121.453 14.575C123.482 14.575 124.753 16.0892 124.773 18.5264V18.855V18.8542ZM141.501 20.0618C140.916 21.9518 139.416 22.9935 137.278 22.9935C134.221 22.9935 132.32 20.6719 132.32 16.9344C132.32 13.1977 134.237 10.8761 137.325 10.8761C139.462 10.8761 140.693 11.7133 141.32 13.5907L141.612 14.4689L144.273 13.2189L144.023 12.516C143.01 9.66062 140.67 8.15272 137.255 8.15272C134.935 8.15272 132.966 8.99 131.559 10.5742C130.168 12.1434 129.431 14.3415 129.431 16.936C129.431 22.271 132.511 25.7192 137.278 25.7192C140.637 25.7192 143.24 23.9613 144.238 21.0162L144.493 20.2639L141.759 19.2245L141.499 20.0634L141.501 20.0618ZM152.026 11.8973C150.68 11.8973 149.483 12.2668 148.542 12.9665V6.74938H145.724V25.4857H148.542V18.0602C148.542 15.6513 150.287 14.5538 151.91 14.5538C153.654 14.5538 154.503 15.4941 154.503 17.4289V25.4865H157.322V17.0539C157.322 13.9225 155.244 11.8997 152.028 11.8997L152.026 11.8973ZM173.795 6.34607C172.748 6.34607 171.988 7.10631 171.988 8.15272C171.988 9.19991 172.748 9.96015 173.795 9.96015C174.842 9.96015 175.602 9.19991 175.602 8.15272C175.602 7.10631 174.842 6.34607 173.795 6.34607ZM183.832 11.8973C182.444 11.8973 181.207 12.292 180.234 13.0404L180.208 12.1316H177.531V25.4833H180.35V18.0586C180.35 15.6647 182.094 14.5758 183.717 14.5758C185.462 14.5758 186.311 15.5153 186.311 17.4509V25.4833H189.129V17.0751C189.129 13.8816 187.1 11.8973 183.835 11.8973H183.832ZM175.164 12.1324H172.36V18.7505C171.582 18.0971 170.665 17.6026 169.63 17.2795V16.6065C169.63 13.6584 167.695 11.8973 164.452 11.8973C161.817 11.8973 159.847 13.1348 159.044 15.2897L158.828 15.8715L161.088 17.5366L161.475 16.5264C161.986 15.1946 162.933 14.5743 164.452 14.5743C165.971 14.5743 166.812 15.3054 166.812 16.7457V16.8212C166.721 16.8172 166.63 16.8146 166.539 16.8133C163.522 16.7654 161.32 17.4706 159.996 18.9077C158.642 20.3779 158.76 22.0288 158.779 22.2112L158.791 22.3386H158.804C159.014 24.3953 160.811 25.7153 163.422 25.7153C164.86 25.7153 166.188 25.3151 167.193 24.5832L167.204 25.4825H169.63V21.3056L169.578 21.2678C169.235 21.0162 168.636 20.6923 167.736 20.5783C167.471 20.5432 167.204 20.5271 166.936 20.5304H166.81V20.914C166.81 21.7969 165.795 23.0407 163.537 23.0407C161.871 23.0407 161.622 22.3394 161.622 21.9211V21.8787C161.635 21.6908 161.713 21.2317 162.128 20.8048C162.654 20.2615 163.838 19.6255 166.493 19.6656C168.415 19.6962 169.89 20.2332 170.877 21.2639C172.089 22.5281 172.317 24.2592 172.358 24.9377V25.4833H175.163V12.1324H175.164ZM94.5922 11.8391C91.9577 11.8391 89.9875 13.0758 89.1849 15.2315L88.9687 15.8133L91.2281 17.4784L91.6157 16.4682C92.1267 15.1364 93.0733 14.5153 94.5922 14.5153C96.1119 14.5153 96.9523 15.2464 96.9523 16.6875V17.0256L94.0497 17.5382C90.6471 18.1396 88.9215 19.5948 88.9215 21.8606C88.9215 24.1264 90.7423 25.6579 93.5607 25.6579C94.9995 25.6579 96.3273 25.2569 97.3321 24.5258L97.3439 25.4244H99.7692V16.5484C99.7692 13.5994 97.8344 11.8391 94.5922 11.8391ZM96.9523 19.6672V20.8566C96.9523 21.7403 95.9366 22.9833 93.6787 22.9833C92.012 22.9833 91.7643 22.2828 91.7643 21.8645C91.7643 21.4927 91.7643 20.6239 94.7164 20.076L96.9523 19.6672Z" fill="white"/>
</g>
<defs>
<clipPath id="clip0_4303_24342">
<rect width="189.573" height="32" fill="white"/>
</clipPath>
</defs>
</svg>
