<svg width="131" height="21" viewBox="0 0 131 21" fill="none" xmlns="http://www.w3.org/2000/svg">
<g clipPath="url(#clip0_4303_24297)">
<path d="M130.489 16.6749V19.9629C130.055 20.2157 128.473 20.5309 127.123 20.5309C123.871 20.5309 121.879 18.7189 121.879 14.5469V2.13728L125.871 2.13408V5.86528H129.755V8.99088H125.871V14.4965C125.871 16.4941 126.595 17.1253 128.017 17.1253C128.995 17.1253 129.974 16.8653 130.489 16.6749ZM111.993 5.78448C111.995 1.91168 114.07 0.143677 117.388 0.143677C118.504 0.143677 119.62 0.356477 120.16 0.506077L120.163 3.65968C119.481 3.41409 118.761 3.29034 118.035 3.29408C116.682 3.29408 115.985 4.02528 115.982 5.78448V5.86528H119.354L119.351 8.99088H115.983V20.2437H111.991V5.78448H111.993ZM96.8794 13.0565C96.8794 7.86528 98.8738 5.57488 103.443 5.57488C108.011 5.57488 110.002 7.86528 110.002 13.0565C110.002 18.2437 108.011 20.5341 103.442 20.5341C98.8738 20.5341 96.8794 18.2437 96.8794 13.0565ZM105.961 13.0565C105.961 10.0125 105.283 8.93728 103.443 8.93728C101.602 8.93728 100.92 10.0125 100.92 13.0565C100.92 16.0965 101.602 17.1749 103.443 17.1749C105.283 17.1749 105.961 16.0965 105.961 13.0565ZM83.889 19.7525L83.8922 16.2877C84.8762 16.7253 87.0018 17.2877 89.1242 17.2877C91.0858 17.2877 91.7394 16.7685 91.7394 16.0597C91.7394 15.3557 91.477 15.0501 90.1482 14.7941L87.905 14.3501C85.077 13.7813 84.005 12.4965 84.005 10.0437C84.005 7.24688 85.933 5.58448 90.1082 5.58448C92.0482 5.58448 94.0362 5.97488 94.8522 6.25008L94.8546 9.61568C94.1202 9.28128 92.4426 8.82768 90.4826 8.82768C88.489 8.82768 87.8426 9.25328 87.8426 9.93168C87.8426 10.5941 88.1546 10.8997 89.4922 11.1621L91.6362 11.5781C94.5082 12.1597 95.5954 13.4061 95.5954 15.9845C95.5954 18.8909 93.717 20.5253 89.3234 20.5253C87.3514 20.5253 84.8114 20.0925 83.889 19.7525ZM69.4362 16.0061C69.4362 13.3309 71.2114 11.7341 74.4826 11.7341H77.9986V11.1469C77.9986 9.59968 77.2986 8.98128 75.1482 8.98128C73.4826 8.98128 71.5674 9.30608 70.5802 9.56848V6.14368C71.4522 5.94368 73.9394 5.65328 75.905 5.65328C80.205 5.65328 81.9514 7.67168 81.9514 11.1565V20.2437H77.9986V18.7653C77.4234 19.8933 76.205 20.5341 74.1482 20.5341C71.0642 20.5341 69.4362 18.8125 69.4362 16.0061ZM77.9986 15.0653V14.2533H75.2546C73.9018 14.2533 73.3138 14.8309 73.3138 15.8845C73.3138 16.9621 73.9114 17.5309 75.2546 17.5309C77.161 17.5309 77.9986 16.9597 77.9986 15.0653ZM67.645 10.9621V20.2437H63.6546V11.9189C63.6546 10.0277 63.0546 8.97808 61.4146 8.97808C59.6426 8.97808 58.989 10.0277 58.989 11.9189V20.2437H55.0018V11.9189C55.0018 10.0277 54.4234 8.97808 52.761 8.97808C50.9706 8.97808 50.3362 10.0277 50.3362 11.9189V20.2437H46.3474V5.86528H50.3386L50.3354 7.41248C51.1666 6.29328 52.301 5.57488 54.1818 5.57488C56.0378 5.57488 57.385 6.33728 58.1194 7.64688C59.2698 6.26288 60.6194 5.57488 62.6258 5.57488C65.9882 5.57488 67.645 7.81248 67.645 10.9621ZM31.4082 16.0061C31.4082 13.3309 33.1826 11.7341 36.4546 11.7341H39.9666V11.1469C39.9666 9.59968 39.2706 8.98128 37.1202 8.98128C35.4514 8.98128 33.5394 9.30608 32.5522 9.56848V6.14368C33.4202 5.94048 35.9114 5.65328 37.8738 5.65328C42.177 5.65328 43.9234 7.67168 43.9234 11.1565V20.2437H39.9674V18.7653C39.3954 19.8933 38.177 20.5341 36.1202 20.5341C33.0362 20.5341 31.4082 18.8125 31.4082 16.0061ZM39.9674 15.0653V14.2533H37.2234C35.8738 14.2533 35.2826 14.8309 35.2826 15.8845C35.2826 16.9621 35.8826 17.5309 37.2234 17.5309C39.133 17.5309 39.9674 16.9597 39.9674 15.0653Z" fill="white"/>
<mask id="mask0_4303_24297" style="mask-type:luminance" maskUnits="userSpaceOnUse" x="1" y="0" width="29" height="21">
<path d="M1.39648 0.143311H29.6901V20.5337H1.39648V0.143311Z" fill="white"/>
</mask>
<g mask="url(#mask0_4303_24297)">
<path d="M16.2869 20.2436H28.9685V16.4404H20.5805V0.575562H16.2869V20.2436ZM5.69008 20.2436H14.0805V16.4404H1.39648V0.575562H5.69008V20.2436Z" fill="white"/>
</g>
</g>
<defs>
<clipPath id="clip0_4303_24297">
<rect width="129.6" height="20.8" fill="white" transform="translate(0.888672 0.144043)"/>
</clipPath>
</defs>
</svg>
