<svg width="91" height="29" viewBox="0 0 91 29" fill="none" xmlns="http://www.w3.org/2000/svg">
<g clipPath="url(#clip0_4303_24279)">
<path d="M38.8836 5.11282H40.8458L41.6554 8.04052L41.9331 9.1829H41.984L42.2584 8.04052L43.0717 5.11282H45.0339V13.3742H43.4516V10.8168L43.4526 10.6834C43.4663 9.70572 43.6189 7.83142 43.7022 6.97916H43.6643L43.0301 9.19656L42.3869 11.1866H41.4794L40.8249 9.19656L40.2335 6.97916H40.1897L40.2098 7.17673C40.3049 8.14167 40.4403 9.94997 40.4403 10.8168V13.3742H38.8836V5.11282ZM46.703 11.8065H48.6333V6.6806H46.703V5.11277H52.4339V6.6806H50.5042V11.8065H52.4339V13.3744H46.703V11.8065ZM54.0129 12.3334L55.0866 11.0493C55.7114 11.5607 56.4824 11.9114 57.2838 11.9114C58.0776 11.9114 58.4442 11.6041 58.4442 11.2003C58.4442 10.6054 57.9529 10.4615 57.1708 10.1342L56.094 9.67479C55.1783 9.32695 54.342 8.62501 54.342 7.42247C54.342 6.05427 55.5751 4.96065 57.3713 4.96065C58.3654 4.96065 59.37 5.33335 60.1163 6.04231L59.1738 7.22094C58.5915 6.80308 58.0765 6.57555 57.2688 6.57555C56.6529 6.57555 56.2346 6.83097 56.2346 7.31336C56.2346 7.81035 56.7887 7.99233 57.5815 8.28931L58.5927 8.71761C59.6753 9.12314 60.3584 9.79794 60.3584 10.9639C60.3584 12.3372 59.2057 13.5262 57.1596 13.5262C56.0427 13.5262 54.8893 13.1179 54.0129 12.3334ZM63.8535 6.6806H61.3755V5.11277H68.202V6.6806H65.7244V13.3744H63.8535V6.6806ZM71.3488 6.59671H72.2608C73.2433 6.59671 73.7706 6.87092 73.7706 7.68672C73.7706 8.49549 73.2433 8.91829 72.2608 8.91829H71.3488V6.59671ZM76.0012 13.3743L74.1319 10.0692C75.0143 9.67032 75.6048 8.90064 75.6048 7.68672C75.6048 5.74079 74.1926 5.12505 72.4655 5.11293L69.4743 5.11275V13.3743H71.3488V10.4022H72.3307L73.9088 13.3743H76.0012ZM79.1063 9.95275L79.3019 9.19161L79.9432 6.52731H79.9939C80.1359 7.15001 80.3049 7.8216 80.4662 8.45516L80.8481 9.95275H79.1063ZM81.7211 13.3742H83.7045L81.13 5.11281H78.8878L76.3133 13.3742H78.2275L78.7321 11.4096H81.2198L81.7211 13.3742ZM85.1657 5.11282H87.0328V11.8066H90.712V13.3742H85.1657V5.11282ZM41.0562 23.206L41.2517 22.4448L41.8931 19.7804H41.9438C42.0858 20.4031 42.2548 21.0747 42.4161 21.7084L42.798 23.206H41.0562ZM43.6702 26.6307H45.6544L43.0789 18.3659H40.8358L38.2603 26.6307H40.1753L40.6803 24.6649H43.1687L43.6702 26.6307ZM46.703 25.0598H48.6333V19.9337H46.703V18.3658H52.4339V19.9337H50.5042V25.0598H52.4339V26.6276H46.703L46.703 25.0598ZM54.0973 27.4498H60.2202V28.8737H54.0973V27.4498ZM22.3867 0.143799H27.7834V5.54052H22.3867V0.143799Z" fill="white"/>
<path d="M25.084 0.143799H30.4807V5.54051H25.084V0.143799Z" fill="white"/>
<path d="M0.800781 0.143799H6.1975V5.54051H0.800781V0.143799ZM0.800781 5.54051H6.1975V10.9372H0.800781V5.54051ZM0.800781 10.9372H6.1975V16.3339H0.800781V10.9372ZM0.800781 16.3339H6.1975V21.7307H0.800781V16.3339ZM0.800781 21.7307H6.1975V27.1274H0.800781V21.7307Z" fill="white"/>
<path d="M3.49805 0.143799H8.89476V5.54051H3.49805V0.143799Z" fill="white"/>
<path d="M25.0849 5.54077H30.4816V10.9375H25.0849V5.54077ZM3.49805 5.54077H8.89476V10.9375H3.49805V5.54077Z" fill="white"/>
<path d="M16.9902 5.54077H22.387V10.9375H16.9902V5.54077Z" fill="white"/>
<path d="M19.688 5.54077H25.0847V10.9375H19.688V5.54077ZM8.89453 5.54077H14.2912V10.9375H8.89453V5.54077Z" fill="white"/>
<path d="M14.2912 10.9373H19.688V16.334H14.2912V10.9373ZM19.688 10.9373H25.0847V16.334H19.688V10.9373ZM8.89453 10.9373H14.2912V16.334H8.89453V10.9373Z" fill="white"/>
<path d="M11.5918 16.3341H16.9885V21.7308H11.5918V16.3341Z" fill="white"/>
<path d="M14.291 16.3341H19.6877V21.7308H14.291V16.3341Z" fill="white"/>
<path d="M25.0849 10.9373H30.4816V16.334H25.0849V10.9373ZM3.49805 10.9373H8.89476V16.334H3.49805V10.9373Z" fill="white"/>
<path d="M22.3867 16.3341H27.7834V21.7308H22.3867V16.3341Z" fill="white"/>
<path d="M25.084 16.3341H30.4807V21.7308H25.084V16.3341Z" fill="white"/>
<path d="M22.3867 21.7306H27.7834V27.1273H22.3867V21.7306Z" fill="white"/>
<path d="M3.49805 16.3341H8.89476V21.7308H3.49805V16.3341Z" fill="white"/>
<path d="M25.0849 21.7306H30.4816V27.1273H25.0849V21.7306ZM3.49805 21.7306H8.89476V27.1273H3.49805V21.7306Z" fill="white"/>
</g>
<defs>
<clipPath id="clip0_4303_24279">
<rect width="89.9122" height="28.8" fill="white" transform="translate(0.800781 0.144043)"/>
</clipPath>
</defs>
</svg>
