<svg width="96" height="33" viewBox="0 0 96 33" fill="none" xmlns="http://www.w3.org/2000/svg">
<g clipPath="url(#clip0_4303_24328)">
<path d="M44.9741 24.418C44.9741 25.5756 44.0358 26.5142 42.8782 26.5142H41.4453V24.8776H41.3942C41.2408 25.0992 41.0362 25.3293 40.7805 25.5678C40.5656 25.7674 40.3095 25.9531 40.0118 26.125L39.9111 26.1817C39.5873 26.3691 39.2207 26.5225 38.8115 26.642C38.4194 26.7613 38.0102 26.8208 37.5841 26.8208C36.6636 26.8208 35.8283 26.6674 35.0782 26.3605C34.328 26.0367 33.6804 25.5934 33.1348 25.0308C32.6064 24.4513 32.1972 23.7695 31.9074 22.9854C31.6175 22.201 31.4727 21.3402 31.4727 20.4027C31.4727 19.5333 31.6005 18.7064 31.8562 17.9221C32.1289 17.121 32.5041 16.4134 32.9813 15.7997C33.4498 15.2184 34.0098 14.7518 34.6618 14.3999L34.7713 14.3423C35.4703 13.9672 36.263 13.7797 37.1494 13.7797C37.9507 13.7797 38.6923 13.9076 39.3741 14.1633C40.0731 14.4019 40.644 14.8196 41.0873 15.4164H41.1385V9.27848C41.1385 8.12089 42.0769 7.1825 43.2345 7.1825H44.9741V24.418ZM41.4453 20.3002C41.4453 19.3627 41.1727 18.6041 40.6271 18.0244C40.0987 17.4448 39.3485 17.155 38.3768 17.155C37.4051 17.155 36.6466 17.4448 36.101 18.0244C35.5726 18.6041 35.3083 19.3627 35.3083 20.3002C35.3083 21.2379 35.5726 21.9965 36.101 22.576C36.6466 23.1558 37.4051 23.4456 38.3768 23.4456C39.3485 23.4456 40.0987 23.1558 40.6271 22.576C41.1727 21.9965 41.4453 21.2379 41.4453 20.3002ZM47.4558 16.1824C47.4558 15.025 48.3941 14.0866 49.5518 14.0866H51.2914V16.081H51.3426C51.7339 15.3473 52.1955 14.7929 52.7272 14.4179L52.8001 14.3678C53.3627 13.9757 54.0701 13.7797 54.9225 13.7797C55.1441 13.7797 55.3656 13.7882 55.5874 13.8053C55.8089 13.8223 56.0135 13.8564 56.2011 13.9076V17.4108C55.9282 17.3255 55.6555 17.2657 55.3828 17.2316C55.1271 17.1804 54.8542 17.1549 54.5645 17.1549C53.8313 17.1549 53.2518 17.2571 52.8257 17.4617C52.3994 17.6663 52.0669 17.9562 51.8284 18.3311C51.6067 18.6891 51.4618 19.1238 51.3937 19.6353C51.3254 20.1469 51.2914 20.7092 51.2914 21.3229V24.4179C51.2914 25.5755 50.3531 26.5141 49.1954 26.5141H47.4558V16.1824ZM65.5043 24.9545H65.4531C65.027 25.6194 64.4559 26.0966 63.7399 26.3865C63.0411 26.6762 62.2995 26.821 61.5152 26.821C60.9802 26.821 60.4598 26.7485 59.9537 26.6033L59.8275 26.5655C59.2991 26.4121 58.8303 26.1734 58.4211 25.8495C58.012 25.5255 57.6882 25.1249 57.4494 24.6475C57.2109 24.1702 57.0914 23.6163 57.0914 22.9856C57.0914 22.2696 57.2193 21.6643 57.475 21.17C57.7479 20.6756 58.1059 20.2665 58.549 19.9426C59.0093 19.6186 59.5293 19.3715 60.1088 19.2011C60.6886 19.0135 61.2851 18.877 61.8988 18.7917C62.5297 18.7066 63.1518 18.6555 63.7655 18.6383L64.1784 18.6282C64.6514 18.618 65.0933 18.6129 65.5043 18.6129C65.5043 17.9553 65.2745 17.4325 64.8148 17.0443L64.7627 17.0018C64.2855 16.5926 63.7143 16.3881 63.0495 16.3881C62.4188 16.3881 61.8393 16.5245 61.3106 16.7972C60.7992 17.0531 60.3389 17.4111 59.9298 17.8712L57.8841 15.7743C58.569 15.1385 59.3632 14.6585 60.2663 14.3345L60.3901 14.2913C61.3448 13.9504 62.3335 13.7799 63.3563 13.7799C64.4814 13.7799 65.402 13.9248 66.118 14.2146C66.8512 14.4874 67.4307 14.8965 67.8568 15.4419C68.3001 15.9875 68.607 16.6609 68.7774 17.462C68.948 18.2463 69.0331 19.1583 69.0331 20.1981V24.4184C69.0331 25.5758 68.0947 26.5144 66.9371 26.5144H65.5043V24.9545ZM65.5043 21.0675H64.5582L64.419 21.0688C64.1539 21.0732 63.8337 21.09 63.4586 21.1187C63.0325 21.1359 62.6148 21.204 62.2056 21.3233C61.8137 21.4427 61.4727 21.6217 61.1828 21.8602C60.9101 22.099 60.7737 22.4314 60.7737 22.8577C60.7737 23.318 60.9698 23.6588 61.3618 23.8803C61.7539 24.1021 62.1631 24.2128 62.5892 24.2128C62.9644 24.2128 63.3224 24.1616 63.6632 24.0593C64.0212 23.9571 64.3366 23.8122 64.6093 23.6246C64.8612 23.4517 65.062 23.235 65.2121 22.9746L65.2486 22.9087C65.4192 22.619 65.5043 22.278 65.5043 21.886V21.0675ZM71.6958 16.1824C71.6958 15.025 72.6342 14.0866 73.7918 14.0866H75.378V15.7741H75.4292C75.5484 15.5356 75.7188 15.2969 75.9406 15.0583C76.1621 14.8196 76.4264 14.6065 76.7333 14.419C77.0401 14.2315 77.3895 14.078 77.7817 13.9587C78.1737 13.8394 78.6 13.7797 79.0603 13.7797C79.9931 13.7797 80.753 13.9211 81.3403 14.2039L81.4128 14.24C81.9795 14.5153 82.4232 14.8983 82.744 15.3889L82.7936 15.4673C83.1344 15.9959 83.3646 16.618 83.484 17.334C83.6033 18.05 83.663 18.8257 83.663 19.6611V24.418C83.663 25.5756 82.7247 26.5142 81.567 26.5142H79.8274V20.4281C79.8274 20.0701 79.8102 19.7037 79.7762 19.3285C79.7591 18.9366 79.6823 18.5786 79.5461 18.2547C79.4266 17.9307 79.2307 17.6664 78.958 17.4618C78.7023 17.2573 78.3271 17.155 77.8329 17.155C77.3675 17.155 76.9853 17.2381 76.6861 17.4042L76.631 17.4363C76.3242 17.6069 76.0854 17.8454 75.915 18.1522C75.7616 18.4421 75.6593 18.7745 75.6082 19.1495C75.557 19.5247 75.5315 19.9166 75.5315 20.3258V24.418C75.5315 25.5756 74.5931 26.5142 73.4355 26.5142H71.6958V16.1824ZM95.0996 15.059C95.0996 16.2165 94.1612 17.1549 93.0036 17.1549H91.7242V21.2976C91.7242 21.6384 91.7414 21.9538 91.7753 22.2435C91.8095 22.5164 91.8862 22.7549 92.0055 22.9595C92.1249 23.164 92.3039 23.3261 92.5425 23.4455C92.7982 23.5478 93.1306 23.5988 93.5397 23.5988C93.7443 23.5988 94.0086 23.5818 94.3324 23.5476C94.6734 23.4965 94.9291 23.3944 95.0996 23.241V25.0695C95.0996 25.8901 94.5856 26.6534 93.7699 26.744C93.3096 26.7951 92.8579 26.8207 92.4146 26.8207C91.7669 26.8207 91.1702 26.7526 90.6246 26.6161C90.0793 26.4799 89.6018 26.2667 89.1927 25.9771C88.7835 25.6702 88.4597 25.2781 88.221 24.8006C87.9994 24.3233 87.8885 23.7438 87.8885 23.062V17.1549H85.4337V16.1823C85.4337 15.0248 86.3723 14.0865 87.5297 14.0865H87.8885V12.5002C87.8885 11.3426 88.8271 10.4042 89.9845 10.4042H91.7242V14.0865H95.0996V15.059Z" fill="white"/>
<path d="M22.1499 29.467L21.5129 11.9061L20.3594 7.27625L28.059 8.09135V29.3341L23.3556 32.0486L22.1499 29.467Z" fill="#000D4D" fillOpacity="0.45"/>
<path d="M28.0576 8.09019L23.3543 10.8066L13.6482 8.67748L2.28733 13.3031L0.394531 8.09019L7.30918 4.09734L14.2259 0.104492L21.1408 4.09734L28.0576 8.09019Z" fill="#000D4D" fillOpacity="0.45"/>
<path d="M0.394531 8.09018L5.09792 10.8066L7.82437 18.9151L17.0301 26.2808L14.2261 32.0473L7.30939 28.0542L0.394531 24.0613V8.08997" fill="#000D4D" fillOpacity="0.45"/>
<path d="M17.3448 22.02L14.2266 26.6169V32.0476L18.6512 29.4947L20.931 26.0904" fill="#000D4D" fillOpacity="0.45"/>
<path d="M14.2273 21.188L9.80078 13.524L10.7542 10.9839L14.3788 9.22656L18.65 13.5242L14.2273 21.188Z" fill="#000D4D" fillOpacity="0.45"/>
<path d="M9.80309 13.5233L14.2277 16.0762V21.1862L10.1355 21.3623L7.66016 18.2015L9.80309 13.5233" fill="#000D4D" fillOpacity="0.45"/>
<path d="M14.2266 16.0759L18.6512 13.5232L21.6625 18.5372L18.0184 21.5481L14.2266 21.1861V16.0759Z" fill="#000D4D" fillOpacity="0.45"/>
<path d="M18.6503 29.4943L23.3537 32.0475V10.8068L18.7886 8.17213L14.2257 5.53748L9.66061 8.17213L5.09766 10.8068V21.3473L9.66061 23.9819L14.2257 26.6168L18.6503 24.0616V29.4943ZM18.6503 18.6309L14.2257 21.1859L9.80104 18.6309V13.523L14.2257 10.968L18.6503 13.523V18.6309Z" fill="#0F172A" fillOpacity="0.8"/>
<path d="M14.2277 26.6187V21.1871L9.82617 18.6539V24.0764L14.2277 26.6187Z" fill="#0F172A" fillOpacity="0.8"/>
</g>
<defs>
<clipPath id="clip0_4303_24328">
<rect width="94.7052" height="32" fill="white" transform="translate(0.392578 0.104492)"/>
</clipPath>
</defs>
</svg>
